<svg id="svg" xmlns="http://www.w3.org/2000/svg" xmlns:xlink="http://www.w3.org/1999/xlink" width="400" height="287.2665534804754" viewBox="0, 0, 400,287.2665534804754"><g id="svgg"><path id="path0" d="M64.516 46.606 C 64.516 46.933,67.954 48.055,72.156 49.099 C 85.801 52.489,83.963 52.089,96.435 54.383 C 104.030 55.781,109.893 56.435,118.328 56.825 C 128.357 57.289,128.899 57.582,127.796 61.928 C 126.876 65.554,126.942 65.634,131.591 66.551 C 133.732 66.974,137.317 67.889,139.559 68.584 C 146.588 70.766,154.665 71.025,158.441 69.190 C 161.501 67.703,161.693 67.690,164.020 68.800 C 165.345 69.432,166.878 69.949,167.425 69.949 C 169.227 69.949,171.342 72.619,170.421 73.730 C 169.976 74.265,169.192 74.703,168.677 74.703 C 168.163 74.703,167.742 75.008,167.742 75.382 C 167.742 75.756,166.945 76.061,165.972 76.061 L 164.202 76.061 164.687 82.181 C 165.286 89.757,164.148 92.597,161.267 90.710 C 159.414 89.495,158.234 89.338,158.234 90.305 C 158.234 90.669,159.182 91.457,160.341 92.056 C 162.671 93.261,162.671 92.684,160.336 101.188 C 159.566 103.990,158.931 107.861,158.925 109.792 C 158.906 115.543,157.260 117.142,154.499 114.092 C 153.823 113.345,152.727 112.733,152.063 112.733 C 150.712 112.733,148.757 110.199,147.349 106.621 C 146.834 105.314,145.559 103.053,144.515 101.597 C 143.027 99.522,142.786 98.744,143.401 98.003 C 143.960 97.330,143.977 96.846,143.460 96.329 C 142.183 95.052,141.403 96.324,140.922 100.464 C 140.665 102.681,139.867 105.508,139.150 106.747 C 138.432 107.985,137.280 110.221,136.590 111.715 C 133.586 118.214,121.757 129.121,118.934 127.994 C 118.325 127.751,117.063 127.414,116.129 127.245 C 115.195 127.076,111.222 126.215,107.301 125.332 C 103.379 124.450,96.961 123.199,93.039 122.553 C 80.316 120.457,78.706 120.129,71.647 118.190 C 70.153 117.779,67.250 117.161,65.195 116.815 C 63.141 116.470,60.772 115.986,59.932 115.740 C 53.537 113.864,68.646 134.799,76.061 138.086 C 79.963 139.816,83.364 143.294,81.154 143.294 C 79.549 143.294,79.987 144.219,82.118 145.331 C 86.630 147.684,102.774 157.366,106.282 159.823 C 108.275 161.219,111.191 161.760,121.902 162.718 C 127.596 163.228,133.506 165.853,134.076 168.126 C 134.284 168.953,134.958 169.823,135.575 170.060 C 137.371 170.749,137.664 169.727,135.993 168.604 C 134.341 167.493,134.005 165.118,135.186 162.910 C 135.702 161.946,135.680 160.875,135.107 159.139 C 134.120 156.151,135.020 155.323,138.128 156.360 C 143.080 158.012,145.118 162.992,141.795 165.319 C 140.317 166.354,140.315 166.382,141.625 167.395 C 142.833 168.328,142.855 168.499,141.860 169.276 C 141.136 169.841,140.819 170.997,140.922 172.695 C 141.090 175.454,141.935 177.083,141.935 174.646 C 141.935 172.264,144.575 174.082,144.630 176.503 C 144.649 177.336,146.998 182.839,148.786 186.239 C 149.127 186.887,149.406 187.942,149.406 188.582 C 149.406 189.416,149.614 189.538,150.141 189.010 C 150.630 188.521,150.657 187.852,150.220 187.007 C 148.438 183.557,145.199 175.118,145.529 174.788 C 145.736 174.581,147.533 174.746,149.523 175.155 C 151.513 175.563,154.048 175.972,155.157 176.064 C 157.326 176.244,157.949 177.129,159.946 182.867 C 161.152 186.331,161.535 186.657,173.810 194.685 C 176.961 196.746,180.302 198.722,181.235 199.076 C 182.168 199.431,184.975 201.080,187.473 202.741 C 192.456 206.053,197.323 208.451,199.112 208.474 C 201.018 208.499,205.093 211.257,205.093 212.522 C 205.093 214.616,202.020 215.443,198.579 214.275 C 193.254 212.467,186.082 211.690,179.287 212.184 C 175.739 212.442,172.074 212.709,171.143 212.778 C 169.715 212.884,169.351 212.505,168.816 210.357 C 168.101 207.486,167.575 207.344,163.584 208.941 C 160.643 210.118,159.722 209.727,158.691 206.865 C 158.542 206.451,158.174 206.342,157.874 206.622 C 157.573 206.903,157.754 207.930,158.275 208.905 C 159.392 210.991,162.279 212.352,163.026 211.145 C 163.800 209.892,164.934 211.044,165.406 213.562 C 165.644 214.832,166.420 216.396,167.130 217.039 C 167.840 217.681,168.421 218.624,168.421 219.134 C 168.421 219.644,169.145 221.208,170.031 222.611 C 171.304 224.627,171.612 225.973,171.504 229.049 C 171.349 233.501,171.418 233.613,172.755 231.070 L 173.737 229.202 174.177 231.239 C 174.418 232.360,175.056 234.280,175.593 235.507 C 176.131 236.734,176.570 238.320,176.570 239.032 C 176.570 239.745,176.876 240.516,177.250 240.747 C 177.623 240.978,177.929 241.866,177.929 242.720 C 177.929 244.810,179.802 248.443,181.392 249.436 C 183.157 250.538,183.115 254.072,181.324 255.190 C 180.577 255.657,179.966 256.360,179.966 256.752 C 179.966 257.145,180.258 257.285,180.615 257.064 C 180.972 256.844,182.328 257.108,183.629 257.651 C 186.990 259.055,189.047 258.398,188.475 256.102 C 187.194 250.961,187.195 250.954,189.637 250.071 C 193.233 248.771,194.442 248.963,194.000 250.764 C 193.793 251.604,193.442 253.973,193.219 256.027 C 192.216 265.274,190.836 269.580,189.956 266.214 C 189.674 265.134,189.030 264.856,186.816 264.856 C 184.693 264.856,183.681 264.453,182.556 263.158 C 180.528 260.826,180.085 261.017,180.204 264.173 C 180.317 267.197,180.271 267.141,181.944 266.246 C 185.467 264.360,189.527 267.826,190.474 273.528 C 191.200 277.899,196.320 281.009,195.739 276.726 C 195.637 275.971,196.150 273.542,196.880 271.329 C 198.239 267.211,198.078 265.963,195.962 264.207 C 195.335 263.686,194.907 262.247,194.907 260.658 C 194.907 257.609,195.621 257.714,197.176 260.989 C 198.273 263.302,199.670 264.194,206.609 267.011 C 211.462 268.981,211.254 269.998,206.040 269.788 C 202.740 269.656,202.229 269.775,203.127 270.470 C 203.726 270.933,204.434 271.999,204.701 272.838 C 205.300 274.726,206.178 274.786,207.131 273.005 C 209.469 268.636,210.861 274.124,208.560 278.639 C 207.085 281.532,206.985 281.461,213.349 282.043 C 217.015 282.378,217.334 282.225,219.017 279.331 C 220.425 276.910,219.656 275.042,217.251 275.042 C 216.163 275.042,213.243 270.299,213.243 268.532 C 213.243 267.814,217.208 264.177,217.990 264.177 C 218.367 264.177,218.676 263.260,218.676 262.139 C 218.676 260.728,219.008 260.102,219.758 260.102 C 220.353 260.102,221.000 259.491,221.195 258.744 C 221.391 257.997,221.803 257.385,222.110 257.385 C 223.082 257.385,223.573 258.769,222.904 259.622 C 221.168 261.838,221.369 264.744,223.224 264.248 C 226.568 263.354,226.180 256.706,222.783 256.706 C 220.726 256.706,222.569 247.935,224.950 246.394 C 225.798 245.846,225.004 244.936,223.094 244.268 C 222.709 244.134,223.262 241.721,224.380 238.654 C 225.458 235.697,226.483 232.284,226.657 231.070 C 226.831 229.856,227.199 228.862,227.473 228.862 C 228.230 228.862,230.221 231.238,230.221 232.142 C 230.221 233.280,230.953 233.123,231.940 231.774 C 232.659 230.791,232.959 230.752,233.882 231.518 C 235.414 232.790,235.378 231.113,233.836 229.409 C 232.989 228.474,232.894 227.955,233.466 227.383 C 234.037 226.812,234.746 227.164,236.235 228.758 C 238.676 231.371,238.902 231.392,239.174 229.038 C 239.401 227.067,240.959 226.323,242.994 227.212 C 246.570 228.774,249.075 228.238,249.529 225.815 C 250.117 222.679,251.204 222.175,252.914 224.245 C 253.692 225.188,255.857 226.512,257.725 227.188 C 259.593 227.864,261.503 228.708,261.969 229.063 C 262.515 229.477,263.134 229.446,263.701 228.975 C 264.186 228.573,265.944 228.034,267.606 227.779 C 271.627 227.162,273.403 226.186,277.262 222.472 C 279.180 220.625,281.131 219.355,282.049 219.355 C 282.902 219.355,283.916 219.038,284.304 218.650 C 284.776 218.178,285.586 218.166,286.764 218.614 C 289.951 219.826,302.201 221.361,303.807 220.750 C 304.704 220.409,305.819 220.441,306.509 220.827 C 308.899 222.164,309.832 221.188,311.416 215.698 C 312.265 212.753,312.788 209.896,312.578 209.348 C 312.368 208.800,312.478 208.154,312.823 207.911 C 313.619 207.351,315.407 202.942,316.443 198.981 C 316.883 197.301,317.456 195.167,317.717 194.240 C 318.021 193.157,318.916 192.340,320.216 191.958 C 325.852 190.298,336.781 184.056,338.519 181.503 C 339.277 180.389,340.398 178.747,341.010 177.854 C 341.621 176.961,342.280 174.703,342.474 172.835 L 342.826 169.440 341.336 171.307 C 339.508 173.600,339.199 173.615,337.796 171.474 C 336.893 170.096,336.843 169.578,337.531 168.749 C 338.664 167.384,339.241 162.309,338.264 162.309 C 337.855 162.309,337.521 162.615,337.521 162.988 C 337.521 164.196,335.640 163.711,333.570 161.969 C 331.577 160.292,330.051 159.781,330.051 160.792 C 330.051 161.078,331.579 162.312,333.447 163.535 C 336.770 165.711,337.896 167.742,335.778 167.742 C 335.193 167.742,333.712 166.978,332.488 166.044 C 331.264 165.110,329.804 164.346,329.243 164.346 C 328.683 164.346,327.642 163.690,326.930 162.889 C 323.021 158.484,318.160 156.282,318.906 159.253 C 319.280 160.742,319.112 160.951,317.544 160.951 C 316.262 160.951,315.573 160.471,315.110 159.253 C 314.312 157.153,313.208 157.072,312.473 159.058 L 311.917 160.561 311.100 159.033 C 309.755 156.520,305.507 152.880,301.487 150.795 C 296.771 148.350,295.176 146.690,297.540 146.688 C 298.867 146.686,299.164 146.321,299.225 144.610 C 299.347 141.207,300.220 141.230,306.453 144.799 C 312.110 148.038,312.474 148.151,314.006 147.147 C 314.954 146.526,316.281 146.259,317.231 146.497 C 318.793 146.889,318.807 146.859,317.657 145.554 C 317.003 144.812,316.469 143.695,316.469 143.070 C 316.469 142.371,315.923 141.935,315.047 141.935 C 314.205 141.935,313.483 141.392,313.276 140.601 C 313.084 139.868,311.883 138.651,310.607 137.898 C 307.820 136.254,307.209 134.933,308.215 132.724 C 309.183 130.601,310.824 130.618,312.515 132.767 C 315.993 137.188,316.797 133.443,313.804 126.770 C 311.798 122.300,310.307 120.883,307.612 120.883 C 306.515 120.883,306.248 120.593,306.570 119.754 C 307.137 118.277,303.813 114.771,301.846 114.771 C 300.165 114.771,298.132 112.808,298.132 111.187 C 298.132 110.104,294.189 106.621,292.963 106.621 C 292.618 106.621,291.165 105.826,289.735 104.854 C 286.346 102.551,287.256 101.242,291.386 102.480 C 294.825 103.510,295.505 103.060,292.928 101.457 C 291.869 100.798,289.015 98.978,286.587 97.412 C 284.160 95.847,281.256 94.101,280.134 93.533 C 279.013 92.964,277.485 91.824,276.739 90.999 C 273.814 87.766,263.717 84.923,262.449 86.976 C 261.802 88.023,263.909 89.226,266.577 89.332 C 268.744 89.419,275.042 92.730,275.042 93.783 C 275.042 94.807,273.108 94.478,270.095 92.940 C 268.525 92.139,266.341 91.509,265.243 91.540 C 264.111 91.573,262.869 91.101,262.375 90.451 C 261.005 88.649,261.315 90.054,262.830 92.513 C 266.219 98.016,267.844 107.162,265.828 109.389 C 264.948 110.362,264.911 110.803,265.617 111.933 C 266.318 113.056,266.274 113.766,265.367 115.903 C 262.957 121.591,262.588 123.621,263.806 124.512 C 265.225 125.549,264.512 127.674,262.746 127.674 C 262.039 127.674,261.460 127.992,261.460 128.380 C 261.460 128.768,260.390 130.674,259.083 132.615 C 257.189 135.428,256.706 136.805,256.706 139.397 C 256.706 141.185,256.098 144.379,255.354 146.495 C 254.611 148.610,253.808 151.808,253.570 153.602 C 252.880 158.800,248.421 162.572,243.583 162.048 C 229.727 160.546,228.394 159.951,234.537 158.015 C 241.426 155.843,245.534 150.152,245.433 142.918 C 245.369 138.306,245.467 137.973,247.188 136.956 C 248.191 136.364,250.328 134.415,251.937 132.625 C 253.546 130.836,255.920 128.219,257.214 126.811 C 259.145 124.707,259.416 124.070,258.732 123.245 C 257.449 121.700,256.852 122.010,255.320 125.013 C 253.662 128.263,246.035 136.503,244.685 136.503 C 244.174 136.503,243.018 136.020,242.117 135.429 C 240.770 134.547,236.575 134.234,218.542 133.674 C 184.640 132.620,177.739 132.211,177.417 131.239 C 177.199 130.579,180.251 130.390,191.194 130.390 L 205.252 130.390 204.711 128.862 C 203.354 125.029,203.602 111.470,205.103 107.448 C 208.423 98.551,217.768 85.569,220.851 85.569 C 222.383 85.569,220.939 88.060,217.054 92.121 C 206.731 102.911,202.511 121.267,208.227 130.517 C 209.231 132.141,209.578 130.065,208.618 128.177 C 207.167 125.323,206.704 116.158,207.824 112.466 C 210.691 103.019,213.627 97.103,216.619 94.739 C 217.563 93.993,219.253 92.417,220.374 91.237 C 224.080 87.335,233.791 83.587,240.068 83.637 C 241.562 83.648,243.459 83.553,244.285 83.425 C 245.110 83.297,245.874 83.497,245.982 83.871 C 246.091 84.244,244.270 84.833,241.935 85.179 C 237.928 85.772,236.050 86.927,239.092 86.927 C 240.148 86.927,240.441 87.296,240.280 88.426 C 240.020 90.264,243.298 92.402,243.683 90.646 C 244.504 86.900,251.037 93.403,252.775 99.695 C 255.754 110.486,241.992 130.390,231.552 130.390 C 230.864 130.390,230.112 130.696,229.881 131.070 C 229.617 131.497,231.200 131.749,234.157 131.749 L 238.853 131.749 243.311 127.664 C 248.156 123.224,253.248 115.833,254.065 112.054 C 255.804 104.014,257.096 100.955,257.866 103.056 C 258.367 104.421,260.102 104.032,260.102 102.554 C 260.102 101.811,259.491 99.595,258.744 97.630 C 257.997 95.665,257.386 93.263,257.386 92.291 C 257.386 91.319,256.621 89.485,255.686 88.216 C 254.751 86.947,253.814 85.432,253.603 84.849 C 251.681 79.536,233.283 78.960,226.361 83.996 C 223.502 86.076,222.932 85.997,220.445 83.177 C 216.647 78.869,201.702 76.909,201.699 80.718 C 201.698 81.811,201.396 82.203,200.746 81.953 C 200.163 81.729,199.632 82.161,199.376 83.069 L 198.958 84.550 197.611 82.947 C 196.871 82.065,196.265 80.956,196.265 80.483 C 196.265 80.010,195.806 79.243,195.246 78.778 C 193.465 77.299,193.976 75.382,196.152 75.382 C 198.719 75.382,199.222 76.027,197.844 77.550 C 197.022 78.459,196.911 79.016,197.444 79.549 C 198.496 80.601,199.660 79.661,199.660 77.759 C 199.660 75.462,200.301 75.285,205.805 76.066 C 209.313 76.563,210.959 76.548,211.605 76.011 C 212.110 75.592,213.375 75.452,214.476 75.694 L 216.444 76.126 216.808 72.110 C 217.389 65.706,218.048 64.955,222.647 65.459 C 224.758 65.690,235.806 66.176,247.199 66.539 C 258.591 66.901,268.792 67.402,269.868 67.651 C 271.368 67.998,271.751 67.884,271.510 67.159 C 271.337 66.639,269.234 65.739,266.837 65.159 C 264.440 64.579,259.881 63.294,256.706 62.304 C 251.305 60.621,250.108 60.506,238.096 60.524 C 225.717 60.543,217.357 60.054,194.942 58.003 C 187.934 57.362,184.225 57.269,183.770 57.724 C 183.316 58.178,183.568 58.404,184.528 58.404 C 186.473 58.404,188.115 59.085,188.115 59.890 C 188.115 60.281,185.540 60.503,181.834 60.433 C 173.742 60.280,173.774 60.271,176.570 61.786 C 177.878 62.494,181.005 63.284,183.520 63.542 C 188.749 64.078,189.820 64.874,188.826 67.490 C 188.084 69.441,186.449 69.857,185.833 68.251 C 185.509 67.408,183.682 67.233,175.246 67.233 C 165.129 67.233,165.017 67.216,160.604 65.040 C 152.872 61.227,156.265 59.671,166.892 62.156 C 171.965 63.342,173.138 62.248,168.336 60.810 C 164.483 59.656,161.052 59.089,147.503 57.367 C 142.908 56.783,138.476 56.042,137.655 55.721 C 132.646 53.758,125.854 52.097,120.543 51.535 C 106.376 50.036,101.059 49.531,92.699 48.893 C 87.844 48.522,81.121 47.902,77.759 47.515 C 74.397 47.127,70.042 46.631,68.081 46.411 C 66.121 46.191,64.516 46.279,64.516 46.606 M250.331 62.699 C 254.029 63.107,256.027 63.776,256.027 64.607 C 256.027 65.342,235.500 64.985,230.386 64.160 C 225.233 63.328,226.539 62.474,232.576 62.726 C 235.784 62.861,238.584 62.683,238.801 62.330 C 239.161 61.748,242.761 61.863,250.331 62.699 M115.110 71.954 C 101.943 75.238,86.888 93.922,88.597 104.856 C 88.837 106.387,89.113 109.321,89.212 111.375 C 89.403 115.346,91.307 120.515,92.343 119.875 C 92.702 119.653,92.553 118.138,91.990 116.282 C 91.455 114.517,91.013 112.100,91.009 110.910 C 91.005 109.720,90.709 107.977,90.351 107.036 C 86.483 96.863,101.553 77.681,114.565 76.214 C 118.159 75.809,118.479 76.987,115.079 78.109 C 113.044 78.781,112.803 79.061,113.519 79.925 C 114.211 80.758,114.154 81.066,113.211 81.594 C 112.575 81.949,112.054 82.699,112.054 83.260 C 112.054 83.821,110.961 84.737,109.624 85.295 C 105.890 86.856,98.844 94.995,100.121 96.273 C 100.391 96.542,100.885 96.307,101.220 95.750 C 102.989 92.806,103.074 92.747,104.193 93.675 C 105.601 94.844,107.510 93.412,106.940 91.616 C 106.538 90.349,108.345 86.927,109.416 86.927 C 109.747 86.927,110.017 87.808,110.017 88.885 C 110.017 90.272,110.413 90.947,111.375 91.198 C 113.567 91.772,112.985 93.919,110.231 95.416 C 108.653 96.273,107.494 97.525,107.088 98.812 C 106.734 99.932,106.049 101.307,105.567 101.868 C 103.029 104.816,103.610 106.358,107.281 106.413 C 111.100 106.471,114.057 103.491,115.551 98.079 C 116.331 95.254,118.186 94.987,119.810 97.466 C 120.673 98.783,120.730 99.236,120.058 99.438 C 116.536 100.496,116.399 100.657,118.506 101.261 C 120.690 101.888,122.872 100.125,122.905 97.706 C 122.913 97.098,123.349 96.245,123.872 95.811 C 125.248 94.669,125.787 91.872,124.936 90.283 C 123.692 87.957,124.746 86.138,127.199 86.379 C 129.785 86.633,130.629 89.247,129.991 95.026 C 128.751 106.253,120.220 115.148,105.809 120.242 C 102.781 121.312,103.036 122.297,106.208 121.782 C 107.538 121.566,108.680 121.726,108.952 122.166 C 109.208 122.581,109.850 122.920,110.378 122.920 C 110.906 122.920,112.983 123.699,114.994 124.651 L 118.651 126.383 121.239 124.821 C 127.720 120.912,138.510 107.301,135.128 107.301 C 134.745 107.301,134.162 108.011,133.832 108.878 C 131.757 114.336,122.506 122.318,117.330 123.118 C 113.618 123.692,113.454 122.413,116.879 119.600 C 118.521 118.251,120.490 116.536,121.255 115.788 C 122.020 115.039,123.472 113.886,124.481 113.225 C 125.490 112.564,126.316 111.704,126.316 111.314 C 126.316 110.924,127.031 109.633,127.905 108.444 C 129.970 105.634,132.428 100.746,132.428 99.448 C 132.428 98.888,132.886 98.253,133.447 98.038 C 134.007 97.823,134.465 97.069,134.465 96.362 C 134.465 95.509,134.945 95.076,135.890 95.076 C 137.236 95.076,137.289 95.312,136.840 99.321 C 136.209 104.957,137.467 103.728,138.403 97.793 C 141.313 79.351,131.060 67.977,115.110 71.954 M180.342 73.404 C 180.671 73.935,181.005 73.935,181.537 73.404 C 182.450 72.490,186.530 72.428,187.081 73.320 C 188.001 74.808,184.768 76.809,182.147 76.374 C 178.297 75.735,177.929 75.531,177.929 74.045 C 177.929 72.588,179.569 72.152,180.342 73.404 M193.171 77.358 C 194.140 78.926,192.663 80.136,189.781 80.136 C 186.724 80.136,185.689 79.412,186.336 77.726 C 186.761 76.618,192.522 76.308,193.171 77.358 M156.876 80.815 C 156.876 81.690,157.220 82.172,157.725 82.003 C 158.192 81.848,158.574 81.313,158.574 80.815 C 158.574 80.317,158.192 79.782,157.725 79.626 C 157.220 79.458,156.876 79.940,156.876 80.815 M154.839 83.476 C 154.839 83.819,154.629 84.659,154.372 85.343 C 153.961 86.439,154.042 86.476,155.051 85.655 C 156.304 84.636,156.601 82.852,155.518 82.852 C 155.144 82.852,154.839 83.133,154.839 83.476 M186.078 87.271 L 186.078 90.332 181.154 89.901 C 175.442 89.401,174.689 88.956,175.721 86.690 C 176.289 85.443,176.859 85.133,178.136 85.377 C 179.055 85.553,180.013 85.362,180.266 84.954 C 180.519 84.545,181.930 84.211,183.402 84.211 L 186.078 84.211 186.078 87.271 M194.513 86.613 C 194.751 87.560,195.319 88.288,195.775 88.230 C 198.911 87.830,198.921 89.910,195.806 94.670 C 194.852 96.128,193.724 98.702,193.301 100.391 C 192.877 102.079,192.148 103.586,191.681 103.739 C 190.393 104.162,189.854 101.955,190.664 99.575 C 192.285 94.817,192.365 91.206,190.859 90.812 C 189.505 90.458,189.516 90.380,191.291 87.669 C 193.410 84.432,193.923 84.264,194.513 86.613 M266.723 94.794 C 266.076 95.441,264.779 94.392,265.261 93.612 C 265.547 93.148,265.927 93.160,266.415 93.648 C 266.815 94.048,266.954 94.563,266.723 94.794 M229.731 95.313 C 221.060 97.679,214.265 111.796,218.395 118.867 C 219.847 121.353,222.053 122.701,221.012 120.466 C 219.203 116.582,221.115 102.817,223.381 103.410 C 224.070 103.590,224.910 103.186,225.366 102.455 C 226.132 101.230,232.258 100.498,232.258 101.632 C 232.258 101.876,230.781 103.637,228.976 105.546 C 225.506 109.216,223.775 115.109,225.543 117.239 C 225.939 117.717,226.089 118.389,225.876 118.733 C 225.201 119.825,227.526 123.599,228.872 123.599 C 230.693 123.599,231.167 122.417,229.551 121.905 C 227.266 121.179,227.737 118.578,230.051 119.145 C 235.668 120.522,238.434 120.074,240.052 117.529 C 240.898 116.199,242.240 114.528,243.036 113.817 C 243.831 113.105,244.482 111.994,244.482 111.348 C 244.482 110.701,244.949 109.297,245.519 108.227 C 250.069 99.691,240.967 92.247,229.731 95.313 M102.547 96.395 C 102.547 97.812,101.468 98.765,99.830 98.794 C 98.059 98.825,98.074 105.932,99.849 108.189 C 101.910 110.809,102.237 110.499,101.969 106.182 C 101.782 103.186,102.056 101.766,103.218 99.699 C 104.662 97.129,104.675 95.076,103.247 95.076 C 102.862 95.076,102.547 95.670,102.547 96.395 M247.199 97.114 C 247.199 97.861,247.504 98.472,247.878 98.472 C 248.251 98.472,248.557 97.861,248.557 97.114 C 248.557 96.367,248.251 95.756,247.878 95.756 C 247.504 95.756,247.199 96.367,247.199 97.114 M275.251 98.981 C 279.980 103.197,288.396 109.097,295.836 113.413 C 300.282 115.992,302.607 117.945,301.994 118.584 C 301.689 118.901,300.467 118.579,299.277 117.870 C 298.087 117.160,296.107 116.046,294.877 115.394 C 293.647 114.742,291.540 113.369,290.195 112.343 C 288.850 111.317,284.661 108.411,280.887 105.886 C 274.154 101.382,269.610 97.541,269.610 96.354 C 269.610 94.925,271.894 95.989,275.251 98.981 M234.587 106.544 C 234.792 106.876,234.505 107.524,233.948 107.986 C 233.392 108.447,232.937 109.375,232.937 110.047 C 232.937 111.383,227.807 116.129,226.363 116.129 C 225.073 116.129,225.259 115.169,226.825 113.752 C 227.572 113.076,228.183 112.238,228.183 111.889 C 228.183 110.068,233.845 105.343,234.587 106.544 M277.426 112.065 C 277.660 112.444,278.928 113.204,280.243 113.753 C 281.558 114.303,283.547 115.520,284.663 116.459 C 285.779 117.398,287.021 118.166,287.424 118.166 C 287.827 118.166,289.159 118.930,290.383 119.864 C 291.607 120.798,293.368 121.562,294.297 121.562 C 296.832 121.562,299.870 123.593,300.725 125.860 C 302.108 129.522,300.387 130.064,296.759 127.108 C 295.460 126.050,292.467 124.210,290.107 123.020 C 287.748 121.831,284.539 119.932,282.976 118.801 C 281.414 117.670,279.068 116.060,277.764 115.224 C 275.254 113.617,274.211 111.375,275.971 111.375 C 276.537 111.375,277.191 111.685,277.426 112.065 M279.664 122.932 C 281.418 123.749,283.326 124.836,283.905 125.348 C 285.668 126.909,293.902 131.070,295.227 131.070 C 299.476 131.070,300.347 135.100,297.651 142.275 C 295.778 147.261,292.825 146.828,283.664 140.220 C 282.097 139.090,279.109 137.309,277.024 136.262 C 272.086 133.782,269.260 131.506,269.878 130.505 C 270.417 129.634,273.592 130.953,276.061 133.075 C 278.039 134.774,291.765 142.615,292.763 142.615 C 293.882 142.615,296.095 140.584,296.095 139.557 C 296.095 139.112,293.879 137.592,291.171 136.179 C 288.463 134.767,285.484 133.079,284.550 132.429 C 283.616 131.779,281.477 130.563,279.796 129.727 C 274.925 127.304,272.326 124.456,272.326 121.542 C 272.326 118.286,272.752 117.997,274.782 119.878 C 275.714 120.741,277.910 122.116,279.664 122.932 M244.871 132.782 C 244.152 133.327,243.726 133.936,243.926 134.136 C 244.126 134.336,245.021 133.890,245.914 133.147 C 247.771 131.600,246.856 131.280,244.871 132.782 M316.161 137.351 C 315.877 138.005,315.877 139.075,316.161 139.728 C 316.813 141.224,317.443 139.356,316.963 137.351 C 316.692 136.220,316.654 136.220,316.161 137.351 M300.849 145.218 C 300.849 145.529,301.074 146.009,301.350 146.284 C 301.625 146.560,301.854 147.181,301.859 147.664 C 301.877 149.542,311.808 156.191,314.601 156.194 C 317.337 156.198,316.947 154.431,313.922 153.116 C 312.521 152.507,310.917 151.734,310.357 151.397 C 309.796 151.060,308.340 150.335,307.121 149.786 C 305.902 149.237,304.699 148.239,304.447 147.569 C 303.720 145.632,300.849 143.756,300.849 145.218 M323.410 146.801 C 323.555 147.236,324.421 148.062,325.334 148.638 L 326.995 149.683 325.349 147.847 C 323.571 145.864,322.994 145.553,323.410 146.801 M184.068 148.854 C 186.938 150.976,186.593 151.444,182.173 151.433 C 176.988 151.419,175.624 150.553,177.929 148.737 C 180.131 147.001,181.599 147.029,184.068 148.854 M320.983 149.244 C 320.782 149.570,321.594 150.394,322.787 151.077 C 323.981 151.760,325.645 152.939,326.486 153.697 C 327.733 154.822,328.014 154.881,328.014 154.017 C 328.014 153.434,327.250 152.464,326.316 151.861 C 325.382 151.258,323.882 150.289,322.983 149.708 C 322.084 149.128,321.184 148.919,320.983 149.244 M314.579 150.198 C 314.743 150.696,315.575 151.206,316.428 151.330 C 317.481 151.485,317.882 151.267,317.679 150.651 C 317.515 150.153,316.683 149.643,315.830 149.518 C 314.777 149.364,314.376 149.582,314.579 150.198 M290.642 151.273 C 290.599 152.392,288.071 161.051,287.672 161.451 C 286.202 162.921,285.985 160.102,287.289 156.473 C 288.082 154.267,288.850 152.080,288.996 151.613 C 289.279 150.707,290.676 150.419,290.642 151.273 M141.813 153.364 C 141.977 154.478,141.681 154.839,140.603 154.839 C 138.881 154.839,137.965 152.903,139.290 152.065 C 140.654 151.202,141.564 151.670,141.813 153.364 M320.027 153.628 C 320.406 154.766,326.682 159.113,327.199 158.596 C 327.749 158.047,321.827 152.804,320.656 152.802 C 320.158 152.802,319.875 153.174,320.027 153.628 M153.316 156.979 C 157.328 158.156,160.769 159.358,160.963 159.650 C 161.156 159.942,164.671 160.320,168.773 160.491 C 172.875 160.661,179.134 161.122,182.683 161.514 C 186.231 161.907,192.343 162.551,196.265 162.945 C 225.194 165.851,226.021 165.997,225.233 168.052 C 224.738 169.341,223.170 169.363,216.638 168.170 C 213.837 167.658,208.336 166.873,204.414 166.426 C 200.492 165.978,195.425 165.327,193.153 164.979 C 187.798 164.159,184.720 164.176,184.720 165.025 C 184.720 165.399,185.560 165.730,186.587 165.761 C 187.615 165.792,189.066 165.910,189.813 166.023 C 190.560 166.136,196.061 166.883,202.037 167.683 C 223.439 170.549,221.730 169.816,220.572 175.637 L 219.652 180.263 210.845 180.076 C 203.398 179.918,201.753 179.685,200.197 178.569 C 199.185 177.843,198.039 177.250,197.651 177.250 C 196.577 177.250,196.735 176.971,199.574 173.865 C 201.355 171.917,202.366 171.250,202.707 171.801 C 202.983 172.248,202.869 172.954,202.454 173.370 C 200.324 175.500,202.209 176.305,210.911 176.978 C 216.126 177.382,216.769 177.065,217.576 173.684 C 218.005 171.890,217.918 171.817,215.378 171.817 C 213.923 171.817,211.778 171.626,210.611 171.392 C 209.059 171.082,208.488 171.218,208.484 171.902 C 208.478 172.909,205.413 174.627,204.770 173.983 C 204.555 173.769,205.228 172.899,206.265 172.050 L 208.149 170.507 202.377 170.477 C 194.068 170.433,172.136 167.492,170.596 166.215 C 168.506 164.482,178.993 163.414,182.048 165.049 C 182.804 165.454,183.362 165.485,183.362 165.122 C 183.362 163.889,172.377 162.343,161.290 162.016 C 159.423 161.961,156.367 161.356,154.499 160.671 C 152.632 159.987,149.805 158.964,148.217 158.399 C 146.222 157.688,145.331 156.980,145.331 156.105 C 145.331 154.522,144.708 154.454,153.316 156.979 M335.484 155.435 C 335.484 155.762,335.942 156.411,336.503 156.876 C 339.085 159.019,336.629 159.670,333.940 157.555 C 332.076 156.089,331.409 155.878,331.409 156.755 C 331.409 157.617,336.887 161.003,337.584 160.572 C 338.486 160.015,338.297 157.399,337.255 156.027 C 336.281 154.745,335.484 154.478,335.484 155.435 M181.155 158.064 C 181.526 159.179,179.398 159.975,178.486 159.063 C 178.095 158.672,177.991 158.003,178.255 157.577 C 178.855 156.606,180.777 156.929,181.155 158.064 M229.431 162.774 C 230.304 163.325,230.828 163.966,230.595 164.198 C 229.697 165.096,221.392 164.006,221.392 162.991 C 221.392 161.067,226.510 160.929,229.431 162.774 M238.379 168.770 L 240.633 171.095 239.813 174.760 C 238.669 179.871,236.842 181.461,232.756 180.901 C 225.474 179.903,224.077 177.191,227.384 170.475 C 230.351 164.452,233.692 163.934,238.379 168.770 M146.455 166.753 C 146.676 167.329,146.690 167.968,146.485 168.173 C 145.809 168.848,143.294 167.670,143.294 166.677 C 143.294 165.369,145.948 165.432,146.455 166.753 M160.492 170.053 C 160.720 170.646,162.350 171.161,164.809 171.416 C 170.623 172.018,182.557 173.173,186.145 173.481 C 187.863 173.628,190.308 174.411,191.578 175.220 L 193.888 176.691 188.455 176.253 C 185.467 176.012,181.705 175.485,180.096 175.083 C 178.011 174.562,176.709 174.561,175.571 175.080 C 174.397 175.615,172.196 175.544,167.291 174.814 C 159.149 173.601,158.234 173.334,158.234 172.166 C 158.234 169.630,159.776 168.188,160.492 170.053 M282.176 175.217 C 282.409 175.593,282.108 176.089,281.508 176.320 C 280.208 176.819,279.483 176.269,280.108 175.257 C 280.672 174.345,281.626 174.326,282.176 175.217 M294.058 178.196 C 294.058 180.193,292.144 181.060,290.770 179.686 C 289.940 178.856,289.916 178.488,290.634 177.623 C 292.022 175.950,294.058 176.290,294.058 178.196 M144.652 184.300 C 144.652 184.860,144.958 185.508,145.331 185.739 C 145.705 185.969,146.010 185.700,146.010 185.140 C 146.010 184.579,145.705 183.932,145.331 183.701 C 144.958 183.470,144.652 183.740,144.652 184.300 M231.555 184.508 C 232.109 184.994,230.455 187.089,229.345 187.308 C 228.158 187.541,226.527 185.073,227.175 184.024 C 227.541 183.432,230.730 183.785,231.555 184.508 M150.764 190.941 C 150.764 192.182,153.720 198.276,154.329 198.290 C 155.171 198.310,154.916 197.093,153.402 193.872 C 151.914 190.708,150.764 189.430,150.764 190.941 M284.271 195.613 C 283.726 199.725,282.610 202.377,281.425 202.377 C 279.958 202.377,279.605 200.998,280.748 199.734 C 281.345 199.074,281.834 198.009,281.834 197.366 C 281.834 196.051,283.685 192.190,284.315 192.190 C 284.541 192.190,284.521 193.730,284.271 195.613 M150.764 198.172 C 150.764 198.475,151.213 199.315,151.761 200.040 C 152.779 201.386,153.132 200.632,152.389 198.697 C 151.963 197.588,150.764 197.200,150.764 198.172 M154.829 199.830 C 154.824 200.297,154.635 201.371,154.408 202.217 C 154.080 203.441,154.221 203.669,155.096 203.333 C 155.896 203.026,156.197 203.301,156.197 204.342 C 156.197 205.129,156.503 205.772,156.876 205.772 C 157.838 205.772,157.719 204.293,156.527 201.441 C 155.475 198.921,154.846 198.325,154.829 199.830 M224.788 203.064 C 224.788 204.710,223.386 207.810,222.641 207.810 C 221.862 207.810,221.923 204.892,222.749 202.720 C 223.487 200.779,224.788 200.999,224.788 203.064 M227.165 209.517 C 227.165 211.417,225.176 211.207,224.902 209.277 C 224.728 208.046,224.957 207.743,225.921 207.929 C 226.629 208.065,227.165 208.749,227.165 209.517 M311.116 209.360 C 311.017 211.695,310.013 214.775,309.257 215.066 C 308.655 215.297,308.472 215.993,308.737 217.049 C 309.258 219.124,307.832 219.217,305.355 217.268 C 302.806 215.263,303.118 213.924,306.791 211.100 C 309.836 208.760,311.165 208.225,311.116 209.360 M229.542 214.221 C 229.542 215.133,229.271 216.047,228.939 216.251 C 228.015 216.823,226.748 214.913,227.226 213.668 C 227.886 211.948,229.542 212.344,229.542 214.221 M152.227 214.019 C 150.224 214.596,150.007 214.879,150.393 216.415 C 150.688 217.591,150.454 218.571,149.673 219.435 C 148.768 220.434,148.724 220.711,149.470 220.703 C 151.057 220.685,151.973 219.785,152.224 217.997 C 152.381 216.871,152.894 216.298,153.744 216.295 C 154.450 216.293,155.279 215.607,155.589 214.767 C 156.221 213.060,155.847 212.977,152.227 214.019 M193.369 214.674 C 201.253 216.507,205.688 219.754,201.647 220.737 L 200.000 221.138 201.528 222.107 C 203.348 223.263,203.532 225.798,201.868 226.779 C 200.958 227.315,200.880 227.613,201.536 228.046 C 202.458 228.656,201.973 232.937,200.982 232.937 C 199.785 232.937,198.302 235.179,198.302 236.988 C 198.302 238.042,197.891 239.062,197.389 239.254 C 196.887 239.447,196.085 241.002,195.607 242.710 C 194.606 246.283,194.330 246.551,189.999 248.150 C 186.000 249.628,186.156 249.741,183.394 243.343 C 182.133 240.421,180.745 237.572,180.309 237.012 C 179.874 236.452,178.973 234.465,178.309 232.598 C 176.669 227.989,175.215 224.548,173.056 220.168 C 171.074 216.144,171.152 214.832,173.402 214.394 C 176.592 213.772,190.315 213.964,193.369 214.674 M218.676 219.427 C 218.676 219.761,217.889 220.034,216.928 220.034 C 213.933 220.034,215.141 222.304,218.515 223.016 C 221.683 223.684,221.870 224.158,220.374 227.739 C 219.813 229.080,219.355 230.951,219.355 231.897 C 219.355 232.842,219.064 233.616,218.708 233.616 C 218.352 233.616,217.562 234.762,216.953 236.163 C 216.344 237.564,215.555 239.257,215.200 239.926 C 214.845 240.595,214.744 241.448,214.976 241.823 C 215.208 242.198,215.117 242.873,214.775 243.323 C 213.802 244.603,212.355 255.103,212.869 257.151 C 213.515 259.727,207.853 265.047,205.141 264.411 C 200.263 263.268,192.861 254.705,197.429 255.488 C 198.149 255.612,198.688 255.170,198.844 254.329 C 198.983 253.582,199.589 252.588,200.191 252.120 C 200.954 251.526,201.070 251.053,200.574 250.557 C 199.582 249.565,200.290 246.489,201.618 246.019 C 203.387 245.392,204.429 244.377,204.007 243.693 C 203.775 243.318,203.222 243.384,202.656 243.853 C 201.884 244.494,201.698 244.376,201.698 243.247 C 201.698 242.476,201.968 241.679,202.299 241.475 C 203.088 240.987,203.976 235.326,203.779 232.035 C 203.644 229.773,203.983 229.104,206.396 226.877 C 209.291 224.204,209.875 223.201,208.149 223.863 C 206.935 224.329,206.746 222.021,207.834 219.989 C 208.765 218.249,209.751 218.328,210.505 220.204 C 210.843 221.044,211.139 221.350,211.162 220.883 C 211.186 220.416,211.740 220.023,212.394 220.010 C 213.048 219.997,214.331 219.571,215.246 219.065 C 216.930 218.132,218.676 218.317,218.676 219.427 M232.258 219.015 C 232.258 219.576,231.952 220.034,231.579 220.034 C 231.205 220.034,230.900 219.576,230.900 219.015 C 230.900 218.455,231.205 217.997,231.579 217.997 C 231.952 217.997,232.258 218.455,232.258 219.015 M144.440 221.831 C 143.518 222.753,144.007 224.026,146.010 225.916 C 147.131 226.974,148.048 228.222,148.048 228.690 C 148.048 229.159,148.353 229.542,148.727 229.542 C 149.805 229.542,149.522 228.217,147.984 226.057 C 147.202 224.958,146.487 223.552,146.397 222.933 C 146.214 221.690,145.169 221.102,144.440 221.831 M152.321 223.888 C 152.245 226.554,152.500 226.653,154.198 224.618 C 155.860 222.625,155.830 222.289,153.951 221.930 C 152.578 221.668,152.377 221.910,152.321 223.888 M265.820 222.663 C 266.021 222.988,267.109 223.439,268.237 223.664 C 270.641 224.145,270.960 225.808,268.761 226.397 C 266.248 227.070,264.177 226.881,264.167 225.976 C 264.162 225.509,263.974 224.440,263.749 223.599 C 263.337 222.063,264.988 221.317,265.820 222.663 M238.710 224.788 C 239.441 225.971,238.357 226.981,237.298 226.102 C 236.776 225.668,236.515 225.042,236.720 224.711 C 237.215 223.909,238.190 223.947,238.710 224.788 M230.900 227.504 C 230.900 227.878,230.441 228.183,229.881 228.183 C 229.321 228.183,228.862 227.878,228.862 227.504 C 228.862 227.131,229.321 226.825,229.881 226.825 C 230.441 226.825,230.900 227.131,230.900 227.504 M156.001 229.545 C 156.197 230.294,156.009 231.327,155.584 231.839 C 154.979 232.567,155.095 232.846,156.114 233.112 C 157.461 233.464,161.359 240.503,162.974 245.501 C 164.376 249.837,166.904 254.463,168.128 254.932 C 168.927 255.239,169.154 255.893,168.909 257.179 C 168.718 258.176,169.045 260.006,169.636 261.245 C 170.665 263.403,171.817 264.239,171.817 262.827 C 171.817 262.459,172.913 261.699,174.253 261.139 C 175.594 260.579,176.568 259.754,176.418 259.305 C 176.009 258.079,174.533 257.804,174.533 258.954 C 174.533 259.505,174.075 260.132,173.514 260.347 C 171.620 261.074,170.767 260.130,170.767 257.306 C 170.767 255.549,170.369 254.246,169.678 253.741 C 169.079 253.303,167.736 250.811,166.694 248.204 C 165.651 245.597,164.263 242.583,163.609 241.507 C 162.955 240.431,162.579 239.135,162.774 238.627 C 162.969 238.118,162.631 237.511,162.023 237.278 C 161.184 236.956,161.099 236.633,161.671 235.944 C 162.530 234.908,161.978 233.616,160.676 233.616 C 159.361 233.616,157.555 231.326,157.555 229.658 C 157.555 228.844,157.128 228.183,156.600 228.183 C 155.978 228.183,155.769 228.659,156.001 229.545 M206.133 231.099 C 205.843 231.769,205.795 232.507,206.028 232.740 C 206.718 233.430,207.274 232.461,206.956 231.123 C 206.675 229.936,206.638 229.935,206.133 231.099 M149.406 233.656 C 149.406 234.425,149.711 234.866,150.085 234.635 C 150.458 234.404,150.764 233.775,150.764 233.237 C 150.764 232.698,150.458 232.258,150.085 232.258 C 149.711 232.258,149.406 232.887,149.406 233.656 M152.801 235.654 C 152.801 236.027,153.413 236.333,154.160 236.333 C 154.907 236.333,155.518 236.027,155.518 235.654 C 155.518 235.280,154.907 234.975,154.160 234.975 C 153.413 234.975,152.801 235.280,152.801 235.654 M216.412 268.704 C 215.593 269.523,215.939 270.205,217.148 270.156 C 217.801 270.129,218.871 270.334,219.525 270.610 C 220.352 270.960,220.713 270.803,220.713 270.094 C 220.713 268.621,217.525 267.591,216.412 268.704 M203.375 276.435 C 202.729 277.479,203.613 278.153,204.485 277.281 C 204.972 276.793,204.984 276.413,204.520 276.127 C 204.140 275.892,203.624 276.030,203.375 276.435 M180.645 279.011 C 180.645 279.821,185.225 280.876,185.883 280.217 C 186.523 279.578,185.977 279.283,183.192 278.763 C 181.544 278.455,180.645 278.542,180.645 279.011 M203.056 279.117 C 203.056 279.491,203.685 279.796,204.454 279.796 C 205.223 279.796,205.664 279.491,205.433 279.117 C 205.202 278.744,204.573 278.438,204.035 278.438 C 203.496 278.438,203.056 278.744,203.056 279.117 M187.097 280.475 C 187.328 280.849,188.128 281.154,188.875 281.154 C 189.622 281.154,190.044 280.849,189.813 280.475 C 189.582 280.102,188.782 279.796,188.035 279.796 C 187.288 279.796,186.866 280.102,187.097 280.475 " stroke="none" fill="#FFFFFF" fill-rule="evenodd"></path></g></svg>